<?xml version="1.0" standalone="no"?>
<!DOCTYPE svg PUBLIC "-//W3C//DTD SVG 20010904//EN"
 "http://www.w3.org/TR/2001/REC-SVG-20010904/DTD/svg10.dtd">
<svg version="1.0" xmlns="http://www.w3.org/2000/svg"
 width="1039.000000pt" height="321.000000pt" viewBox="0 0 1039.000000 321.000000"
 preserveAspectRatio="xMidYMid meet">

<g transform="translate(0.000000,321.000000) scale(0.100000,-0.100000)"
fill="#777777" stroke="none">
<path d="M4240 3083 c-146 -5 -387 -25 -540 -44 -360 -45 -577 -92 -1972 -430
l-497 -120 -87 26 c-177 54 -328 70 -372 39 -33 -23 -28 -54 29 -179 l52 -113
106 -50 c115 -55 205 -82 271 -82 56 0 80 -14 80 -48 0 -48 -55 -110 -135
-155 -36 -20 -52 -22 -155 -20 -63 2 -158 9 -210 16 l-95 14 -38 -31 c-40 -34
-57 -76 -78 -200 -16 -97 -7 -291 19 -391 25 -94 69 -205 112 -280 17 -30 28
-60 24 -69 -25 -64 197 -166 572 -261 76 -19 139 -34 140 -32 1 1 -2 27 -8 57
-16 94 -13 355 5 451 80 412 319 627 742 670 252 26 512 -31 684 -149 120 -82
236 -229 302 -381 79 -184 111 -358 113 -613 1 -102 5 -181 11 -187 6 -5 54
-5 125 1 203 17 1491 2 3021 -37 323 -8 706 -18 852 -22 197 -4 270 -3 280 6
10 7 17 46 21 119 29 441 126 728 315 926 154 160 337 241 604 266 494 46 793
-211 898 -773 15 -79 22 -171 26 -314 5 -163 8 -203 20 -207 45 -18 499 64
524 94 9 11 46 26 85 35 75 17 114 38 114 60 0 13 -39 50 -62 57 -7 3 -9 20
-4 50 5 35 12 47 28 51 17 5 20 11 15 36 -4 17 0 48 8 71 12 33 14 96 12 310
l-2 268 -25 21 c-52 44 -198 140 -280 184 -525 282 -1537 503 -2685 586 -117
8 -140 13 -230 49 -129 52 -317 135 -580 257 -115 54 -257 119 -315 144 -329
148 -711 248 -1124 296 -140 16 -499 36 -591 33 -27 -1 -84 -3 -125 -5z m661
-168 c412 -48 857 -200 1409 -481 182 -92 373 -212 394 -247 8 -13 8 -20 -4
-27 -9 -6 -123 -10 -265 -10 -205 0 -288 5 -460 25 -127 15 -641 53 -1305 95
l-1094 69 -246 47 -245 47 -87 103 c-48 56 -90 108 -93 116 -9 24 35 69 93 95
187 82 689 144 1412 172 307 12 357 12 491 -4z m-303 -867 c18 -18 14 -56 -7
-68 -12 -6 -95 -10 -200 -10 -150 0 -182 3 -195 16 -9 8 -16 22 -16 29 0 7 7
21 16 29 13 13 46 16 203 16 132 0 191 -4 199 -12z m3872 -18 c241 -31 556
-94 725 -146 129 -40 152 -54 210 -124 129 -158 273 -250 470 -300 62 -16 136
-40 163 -54 94 -48 79 -66 -54 -66 -104 0 -207 -23 -309 -69 -55 -25 -81 -31
-139 -31 l-71 0 -47 93 c-124 243 -339 420 -593 489 -118 31 -375 31 -490 0
-182 -50 -375 -174 -500 -319 -78 -90 -93 -105 -70 -68 99 162 268 317 421
386 115 52 204 71 344 71 153 1 264 -21 475 -92 169 -58 280 -75 304 -47 16
20 -4 29 -195 92 -279 93 -596 158 -981 200 l-128 14 150 -4 c83 -2 224 -14
315 -25z m-5735 -165 c50 -14 140 -47 201 -74 l112 -47 27 34 c16 20 54 47 89
63 156 73 332 75 1551 24 932 -39 1571 -70 1495 -73 -47 -2 -335 4 -640 12
-740 21 -1888 41 -1895 34 -3 -3 5 -23 20 -43 65 -96 5 -223 -173 -366 -84
-68 -210 -154 -215 -148 -2 2 -21 36 -41 74 -94 174 -248 334 -407 424 -82 46
-211 90 -309 107 l-85 14 90 -5 c56 -2 124 -14 180 -30z m4505 -20 c273 -8
460 -29 500 -56 22 -14 -72 -99 -157 -141 l-68 -33 -260 0 c-271 0 -319 6
-366 44 -41 33 -26 119 30 178 19 20 29 22 79 18 31 -2 140 -7 242 -10z
m-6433 -50 c261 -96 550 -154 706 -140 l79 7 -43 -54 c-56 -71 -114 -194 -135
-284 -9 -41 -21 -74 -28 -74 -28 0 -97 48 -166 115 -90 88 -175 144 -279 184
-77 30 -217 61 -273 61 l-31 0 5 83 c3 50 11 95 21 115 10 17 19 32 20 32 2 0
58 -20 124 -45z m5646 -12 c-29 -2 -77 -2 -105 0 -29 2 -6 3 52 3 58 0 81 -1
53 -3z m3147 -32 c175 -39 333 -111 447 -203 83 -68 88 -83 26 -73 -68 10
-195 51 -282 91 -80 37 -254 148 -285 183 -24 26 -17 26 94 2z m-5532 -350
c78 -170 109 -217 193 -295 122 -113 311 -188 524 -207 61 -6 522 -23 1025
-39 815 -26 916 -27 927 -14 30 40 52 276 53 574 1 240 11 271 31 94 12 -108
6 -388 -14 -604 l-12 -125 -125 3 c-836 17 -1959 86 -2229 137 -117 23 -165
48 -246 130 -83 84 -139 184 -189 337 -30 91 -77 295 -76 331 0 7 18 -33 39
-88 21 -55 65 -160 99 -234z m237 -651 c182 -6 535 -17 785 -25 2073 -69 2099
-70 2286 -100 127 -20 168 -39 134 -60 -13 -8 -4069 74 -4099 83 -32 9 -37 28
-13 41 28 15 236 51 350 60 141 12 191 12 557 1z"/>
<path d="M4160 2869 c-443 -27 -822 -83 -991 -146 -71 -26 -129 -69 -129 -95
0 -26 62 -110 103 -139 49 -35 83 -45 228 -64 63 -8 120 -17 129 -20 46 -14
646 -63 655 -53 7 7 -57 163 -106 258 -60 118 -61 117 126 145 515 77 1039 7
1422 -189 82 -42 106 -50 125 -43 41 16 133 1 207 -33 96 -45 105 -56 109
-146 4 -65 7 -77 27 -90 37 -24 164 -41 360 -49 161 -6 178 -5 166 8 -18 23
-590 304 -775 382 -333 141 -603 227 -824 265 -98 17 -157 20 -410 19 -164 -1
-353 -5 -422 -10z m-442 -280 c22 -42 32 -76 32 -105 0 -42 -2 -44 -28 -44
-38 0 -173 35 -218 56 -20 9 -43 28 -51 41 -14 21 -14 26 -2 38 12 12 196 73
225 74 6 1 25 -27 42 -60z"/>
<path d="M5692 2498 c-38 -47 -55 -159 -31 -212 7 -14 28 -32 51 -40 45 -19
164 -21 238 -5 59 13 70 30 70 111 0 43 -4 54 -30 78 -42 39 -130 71 -215 77
-54 4 -73 2 -83 -9z"/>
<path d="M5505 2397 c-18 -15 -28 -36 -32 -65 -3 -23 -10 -45 -15 -48 -12 -8
-359 12 -741 41 -365 29 -432 30 -262 5 267 -39 674 -70 927 -70 167 0 172 1
150 40 -17 29 -17 32 13 103 10 24 -9 22 -40 -6z"/>
<path d="M4283 2353 c9 -2 25 -2 35 0 9 3 1 5 -18 5 -19 0 -27 -2 -17 -5z"/>
<path d="M6933 1754 c-15 -40 16 -44 341 -44 171 0 321 3 334 6 15 4 22 14 22
30 l0 24 -345 0 c-312 0 -346 -2 -352 -16z"/>
<path d="M2251 1749 c-263 -35 -494 -200 -606 -433 -50 -104 -67 -176 -72
-312 -6 -149 14 -243 83 -384 40 -81 61 -109 143 -190 106 -106 193 -158 331
-202 64 -19 96 -23 215 -23 119 0 151 4 215 23 254 80 442 261 526 507 39 114
46 304 15 426 -83 334 -364 567 -711 592 -41 3 -104 1 -139 -4z m289 -175
c420 -132 571 -650 291 -997 -80 -98 -209 -180 -336 -212 -76 -19 -224 -19
-300 0 -221 56 -404 239 -460 460 -20 77 -19 230 1 309 25 95 89 210 158 280
173 175 412 234 646 160z"/>
<path d="M2205 1556 c-27 -7 -65 -19 -84 -27 l-35 -15 37 -21 c67 -40 127
-144 171 -298 38 -130 38 -132 18 -139 -9 -3 -24 -11 -33 -17 -14 -10 -34 -1
-120 56 -129 84 -210 165 -236 236 l-20 52 -51 -77 c-66 -99 -93 -183 -99
-313 -6 -107 -1 -119 32 -83 44 49 235 87 384 77 46 -4 85 -8 86 -9 2 -2 6
-17 9 -33 6 -29 3 -33 -75 -85 -45 -29 -118 -69 -163 -89 -67 -30 -93 -35
-152 -36 -81 0 -81 2 -28 -81 51 -81 139 -160 227 -205 96 -47 121 -51 107
-13 -24 63 6 197 80 351 49 103 50 104 82 101 29 -3 34 -8 55 -63 63 -162 87
-317 60 -393 -18 -51 -15 -52 76 -21 111 37 219 114 285 204 l44 60 -61 7
c-80 9 -190 66 -303 158 -82 67 -85 72 -74 95 10 23 16 25 91 25 153 -1 315
-44 376 -101 17 -16 34 -27 37 -24 11 11 14 204 4 252 -16 73 -47 152 -83 208
l-31 49 -13 -37 c-19 -55 -60 -103 -133 -157 -71 -52 -211 -130 -234 -130 -8
0 -25 11 -38 25 l-24 25 27 96 c47 163 113 283 179 323 l30 19 -30 16 c-83 43
-271 59 -377 32z"/>
<path d="M8418 1660 c-551 -100 -823 -728 -518 -1193 55 -84 172 -198 254
-246 385 -229 895 -77 1091 324 64 131 79 197 79 345 0 145 -15 214 -73 335
-95 199 -250 335 -461 405 -79 27 -112 33 -210 36 -63 1 -136 -1 -162 -6z
m325 -169 c102 -36 179 -84 252 -156 332 -332 195 -895 -253 -1042 -75 -24
-102 -28 -197 -27 -172 1 -297 50 -422 167 -122 115 -189 258 -200 427 -18
295 178 561 471 641 94 25 263 21 349 -10z"/>
<path d="M8450 1479 c-61 -12 -150 -40 -150 -48 1 -3 15 -15 32 -26 70 -44
135 -166 178 -334 l22 -84 -28 -22 -29 -23 -48 26 c-83 46 -220 156 -259 208
-21 27 -41 64 -44 82 -3 17 -9 32 -13 32 -24 0 -110 -155 -136 -243 -17 -58
-26 -219 -13 -232 4 -4 22 4 40 18 58 44 129 59 298 64 l156 5 11 -35 11 -36
-77 -50 c-148 -97 -280 -146 -358 -134 -18 3 -33 1 -33 -4 0 -18 78 -131 118
-171 51 -51 119 -97 188 -128 30 -13 58 -24 62 -24 4 0 7 44 8 98 1 104 21
176 86 307 40 80 43 82 77 77 27 -4 33 -12 59 -81 45 -117 65 -220 59 -304 -3
-40 -8 -82 -12 -94 l-7 -22 58 15 c120 32 237 110 313 207 22 30 41 58 41 63
0 5 -24 10 -53 11 -84 4 -207 73 -355 200 -32 27 -33 30 -21 57 l13 28 96 -6
c172 -13 306 -52 360 -106 29 -29 36 -17 45 69 11 116 -25 267 -86 363 -30 47
-49 54 -49 19 0 -56 -118 -161 -272 -241 l-99 -52 -27 23 c-15 13 -28 24 -29
25 -2 0 9 43 22 95 43 160 130 316 186 334 49 16 -9 47 -129 71 -81 15 -143
16 -212 3z"/>
</g>
</svg>
