<?xml version="1.0" standalone="no"?>
<!DOCTYPE svg PUBLIC "-//W3C//DTD SVG 20010904//EN"
 "http://www.w3.org/TR/2001/REC-SVG-20010904/DTD/svg10.dtd">
<svg version="1.0" xmlns="http://www.w3.org/2000/svg"
 width="4045.000000pt" height="4045.000000pt" viewBox="0 0 4045.000000 4045.000000"
 preserveAspectRatio="xMidYMid meet">

<g transform="translate(0.000000,4045.000000) scale(0.100000,-0.100000)"
fill="#e72f2f" stroke="none">
<path d="M16727 28555 c-68 -17 -105 -35 -131 -63 -17 -19 -18 -45 -19 -344
-2 -298 12 -1367 18 -1448 1 -19 6 -199 10 -400 4 -201 8 -379 10 -396 1 -18
6 -171 10 -340 4 -170 8 -316 10 -324 1 -8 6 -143 9 -300 4 -157 9 -312 11
-345 2 -33 7 -166 10 -295 3 -129 8 -280 10 -335 2 -55 7 -208 10 -340 3 -132
7 -274 10 -315 2 -41 7 -183 10 -315 3 -132 7 -294 10 -360 3 -66 7 -205 10
-310 7 -266 14 -496 20 -660 3 -77 7 -234 10 -350 3 -115 7 -262 10 -325 3
-63 7 -214 10 -335 3 -121 7 -272 10 -335 3 -63 7 -214 10 -335 3 -121 7 -281
10 -355 3 -74 7 -215 10 -312 10 -344 15 -535 20 -683 3 -82 7 -238 10 -345 3
-107 7 -251 10 -320 2 -69 7 -226 10 -350 3 -124 7 -286 10 -360 3 -74 7 -223
10 -330 3 -107 7 -260 10 -340 6 -173 13 -401 20 -640 3 -96 7 -240 10 -320 3
-80 7 -230 10 -335 3 -104 7 -262 10 -350 3 -88 7 -254 10 -370 3 -115 7 -262
10 -325 3 -63 7 -205 10 -315 3 -110 8 -252 10 -315 3 -63 7 -214 10 -335 3
-121 7 -265 10 -320 2 -55 7 -176 10 -270 3 -93 7 -206 10 -250 2 -44 7 -134
10 -200 7 -140 22 -267 36 -311 37 -118 332 -136 456 -29 l38 33 0 498 c0 467
-13 1371 -20 1418 -2 11 -6 165 -9 341 -4 176 -9 347 -11 380 -2 33 -7 179
-10 325 -3 146 -8 308 -10 360 -2 52 -7 196 -10 320 -3 124 -7 288 -10 365 -6
166 -13 410 -20 700 -3 116 -7 253 -10 305 -2 52 -7 219 -11 370 -3 151 -7
294 -9 318 -6 82 -20 748 -19 920 l1 173 29 30 c35 37 271 227 404 325 716
528 1389 883 2080 1097 405 126 847 211 1310 253 299 27 858 27 1170 0 36 -3
121 -11 190 -16 175 -15 548 -60 1070 -130 245 -32 540 -70 655 -85 116 -14
246 -30 290 -35 44 -6 145 -17 225 -25 80 -8 165 -18 190 -20 88 -11 527 -13
645 -4 633 47 1138 237 1590 599 165 131 393 373 433 459 l25 54 -7 409 c-4
226 -9 417 -11 426 -1 10 -6 157 -9 327 -4 171 -9 328 -11 350 -2 22 -7 155
-10 295 -3 140 -8 296 -10 345 -3 50 -7 196 -10 325 -3 129 -7 285 -10 345 -3
61 -7 211 -10 335 -3 124 -7 279 -10 345 -2 66 -7 217 -10 335 -3 118 -7 287
-10 375 -3 88 -7 246 -10 350 -9 338 -15 518 -20 610 -13 252 -18 311 -25 318
-14 15 -106 -41 -255 -154 -81 -61 -182 -133 -224 -159 -175 -109 -371 -190
-545 -226 -153 -31 -393 -33 -581 -4 -437 69 -1079 320 -2130 835 -800 392
-1171 560 -1705 773 -389 155 -640 246 -975 352 -298 95 -749 184 -1085 216
-36 3 -76 7 -90 10 -136 21 -870 25 -1070 6 -474 -47 -875 -129 -1235 -253
-348 -119 -490 -158 -509 -139 -13 13 -25 89 -36 242 -21 295 -49 338 -230
344 -60 2 -116 -2 -153 -11z m3259 -420 c666 -92 1154 -215 1784 -450 69 -26
133 -49 143 -52 9 -3 19 -15 22 -27 2 -11 7 -133 10 -271 3 -137 8 -279 10
-315 3 -36 7 -162 10 -280 3 -118 7 -253 10 -300 3 -47 7 -170 11 -275 4 -154
8 -192 21 -202 8 -6 117 -52 241 -102 125 -49 396 -158 602 -240 564 -227 806
-321 825 -321 8 0 6 129 -11 1123 -6 321 -5 377 7 377 28 0 341 -141 1079
-485 91 -42 211 -97 267 -122 l101 -45 6 -87 c3 -47 8 -185 11 -306 3 -121 8
-254 10 -295 3 -41 7 -214 11 -385 3 -170 8 -312 10 -314 8 -9 245 -94 309
-110 85 -23 344 -67 465 -79 128 -14 310 -13 350 1 57 20 64 47 64 247 0 96
-4 379 -9 627 l-8 453 34 14 c19 8 72 20 118 26 237 32 710 225 780 318 20 25
22 26 35 9 32 -42 58 -370 71 -927 3 -124 8 -250 10 -280 l4 -55 -87 -67
c-208 -160 -479 -287 -767 -358 l-150 -37 0 -49 c0 -70 15 -523 20 -624 2 -47
7 -157 10 -245 7 -211 15 -356 21 -377 12 -43 164 2 398 118 204 102 294 159
481 303 53 40 97 72 99 70 10 -11 31 -717 31 -1019 0 -169 -4 -245 -13 -272
-23 -66 -251 -258 -455 -384 -115 -72 -282 -159 -411 -215 l-98 -43 6 -195
c11 -323 16 -480 21 -591 3 -58 8 -193 11 -301 l7 -197 -189 -45 c-206 -50
-398 -85 -654 -117 -154 -20 -372 -31 -383 -20 -5 5 -9 63 -22 285 -2 44 -7
186 -10 315 -10 454 -33 773 -57 795 -8 8 -444 102 -878 190 -261 53 -483 98
-493 101 -17 5 -17 -5 -12 -183 3 -103 8 -226 10 -273 9 -154 15 -954 7 -1000
-8 -51 0 -49 -137 -37 -105 9 -227 23 -410 47 -141 18 -334 42 -435 54 -193
23 -454 45 -545 47 -60 1 -124 4 -141 6 l-32 5 -6 201 c-4 111 -9 231 -11 267
-2 36 -7 155 -10 265 -3 110 -8 220 -10 245 -2 25 -7 171 -10 325 -3 154 -9
294 -12 310 -9 50 -31 82 -62 93 -47 17 -215 41 -346 51 -158 13 -1016 6
-1170 -8 -156 -15 -320 -38 -368 -51 -74 -21 -73 -13 -68 -610 2 -289 5 -696
5 -905 l1 -380 -55 -27 c-30 -15 -155 -62 -277 -103 -515 -174 -1057 -448
-1655 -838 -212 -139 -447 -287 -462 -293 -11 -4 -15 20 -20 123 -11 214 -15
340 -21 533 -3 102 -7 235 -10 295 -3 61 -7 202 -10 315 -3 113 -8 241 -10
285 -2 44 -7 186 -11 315 l-6 235 118 74 c240 149 342 210 489 288 609 325
1295 585 1844 698 l33 7 -6 157 c-6 149 -10 283 -21 674 -12 434 -16 541 -20
677 -10 270 -17 395 -23 402 -14 14 -481 -65 -659 -112 -508 -135 -1223 -400
-1599 -594 -150 -77 -198 -91 -208 -58 -3 9 -8 76 -11 147 -3 72 -8 159 -10
195 -2 36 -7 180 -11 320 -3 140 -7 265 -9 277 -4 27 -19 887 -18 1056 0 103
2 119 19 132 28 21 292 133 490 208 575 219 1123 348 1639 387 77 5 165 12
195 15 30 2 74 4 98 5 l44 0 -6 148 c-14 340 -16 396 -21 572 -3 102 -7 228
-10 280 -3 52 -7 194 -10 315 -3 121 -8 289 -10 374 -2 85 -2 158 1 162 7 12
12 11 140 -6z"/>
<path d="M19949 26253 c-23 -6 -27 -34 -24 -181 2 -70 6 -307 9 -527 4 -220 9
-434 11 -475 2 -41 7 -176 10 -300 7 -286 15 -399 29 -408 6 -4 191 -7 411 -8
565 -1 869 -26 1370 -114 99 -17 194 -30 210 -28 l30 3 0 295 c0 162 -3 390
-7 505 -4 116 -10 309 -14 430 -3 121 -8 229 -9 240 -2 11 -4 61 -4 111 l-1
91 -67 35 c-243 127 -886 262 -1542 323 -153 14 -374 19 -412 8z"/>
<path d="M23714 25093 c3 -82 8 -251 11 -378 3 -126 8 -264 10 -305 2 -41 7
-158 11 -260 8 -251 20 -445 27 -457 17 -27 518 -200 932 -323 329 -97 411
-113 457 -89 20 11 21 15 14 278 -3 146 -8 327 -11 401 -3 74 -7 209 -10 300
-10 321 -23 407 -67 447 -13 11 -54 32 -93 46 -90 32 -282 108 -670 262 -391
155 -577 225 -599 225 -17 0 -18 -11 -12 -147z"/>
<path d="M22086 24125 c-25 -26 -31 -80 -31 -300 0 -328 30 -1384 40 -1393 2
-2 90 -19 197 -37 192 -34 580 -113 883 -180 342 -75 588 -125 593 -120 11 11
-1 1009 -13 1087 -2 12 -6 80 -9 149 -8 156 -29 303 -48 331 -9 14 -45 30
-104 49 -49 15 -134 42 -189 59 -129 41 -462 143 -590 181 -302 89 -673 189
-702 189 -6 0 -18 -7 -27 -15z"/>
<path d="M25214 22983 c4 -120 8 -263 11 -318 2 -55 7 -244 10 -420 6 -346 12
-455 24 -468 21 -21 101 -29 306 -32 395 -6 797 38 859 93 18 16 18 30 12 357
-12 656 -26 933 -47 946 -8 5 -36 9 -64 9 -223 0 -694 9 -710 13 -11 2 -60 8
-110 11 -49 4 -106 9 -125 11 -19 2 -66 7 -103 10 l-69 7 6 -219z"/>
</g>
</svg>
